<svg height="960" viewBox="0 0 960 960" width="960" xmlns="http://www.w3.org/2000/svg"><g fill="none" fill-rule="evenodd" stroke="#000" stroke-linejoin="round"><path d="m90.8046168 52.4946311c38.2367152-31.5409901 93.4190292-30.6561788 129.0552222-28.4876075 7.380487.4491252 22.270084 1.371215 42.485723 2.6231485 121.99202 7.5548391 438.546623 27.1924106 466.901815 27.1924106 24.556508 0 41.604226 6.468958 53.209874 17.5158185 2.453253.1828795 5.278143.3851772 8.159097.5778667l1.154624.0764946c6.165962.404504 12.39559.7476659 15.624999.7476659 33.01753 0 59.532346 10.1276275 77.948243 27.9443576 18.15054 17.560007 29.060386 43.000185 29.060386 76.233422v624.667785c0 24.325778-10.057429 44.691182-23.937092 59.973846-19.205114 21.146429-45.395129 31.467915-60.94607 31.467915h-23.32475c-22.153112 18.149885-50.074965 28.072246-84.072233 29.082971-12.545029.372958-46.491795 1.278228-91.715032 2.48412-126.283277 3.367383-340.599153 9.081533-421.962531 12.090102-60.312505 2.230172-99.08715-10.584823-123.9075202-33.86805-27.3606626-25.666197-38.9721975-65.36706-38.9721975-119.456099v-613.118691c0-61.323852 19.6458071-96.6372547 45.2374425-117.7474759z" stroke-width="40"/><g stroke-linecap="round" stroke-width="20"><path d="m185.617988 812.846897v-473.686561-203.471527c0-38.6599325 31.340067-70 70-70 1.185812 0 2.371432.0301318 3.555713.0903662l568.786612 28.9293755c37.229817 1.8935667 66.444287 32.6316933 66.444287 69.9096343v638.438723c0 38.190292-30.610698 69.332397-68.795334 69.989634l-568.786612 9.789988c-38.654208.665318-70.528981-30.130761-71.194299-68.784968-.006911-.401518-.010367-.803088-.010367-1.204665z"/><path d="m254.759988 99.2273176c.602371 0 1.204644.0153064 1.806238.0459044l570.502613 29.016654c9.456039.480949 17.894165 4.625027 23.968281 11.015934 6.074117 6.390907 9.784223 15.028642 9.784223 24.496904v640.097554c0 9.699991-3.887421 18.504894-10.199481 24.926532-6.31206 6.421639-15.048758 10.460012-24.747313 10.626944l-570.502613 9.824899c-9.817821.16361-18.774685-3.662861-25.31934-9.986034s-10.6771-15.143047-10.851351-24.960868c0-.203964 0-.407955 0-.611949v-678.933732c0-9.819275 3.980048-18.708961 10.414914-25.143828 6.434867-6.434867 15.324553-10.4149144 25.143829-10.4149144z"/><path d="m326.220572 191.940781c.297961 0 .595877.007398.893472.022188l438.859168 21.810687c4.791.238107 9.067632 2.334103 12.146514 5.5698 3.078882 3.235698 4.960014 7.611098 4.960014 12.408012v501.894972c0 4.911504-1.968854 9.369532-5.165409 12.620351s-7.620812 5.29443-12.53162 5.377099l-438.859168 7.390419c-4.969859.081061-9.503132-1.857629-12.814857-5.0597-3.295054-3.185952-5.380826-7.622596-5.488114-12.562364v-531.471464c0-4.970563 2.014718-9.470563 5.272077-12.727923 3.25736-3.257359 7.75736-5.272077 12.727923-5.272077z"/></g></g></svg>