<svg height="960" viewBox="0 0 960 960" width="960" xmlns="http://www.w3.org/2000/svg"><g fill="none" fill-rule="evenodd" stroke="#000" stroke-linejoin="round"><path d="m282.094419 21.6363242c2.214856 0 4.42935.0566029 6.641313.1697533l382 19.5407616c34.562717 1.7680152 65.402388 16.9216233 87.601381 40.2852044 22.198992 23.3635815 35.757306 54.9371355 35.757306 89.5450425v614.656578c0 34.370818-13.37923 65.771208-35.335415 89.098912-21.956184 23.327705-52.489324 38.582725-86.797143 40.662805l-382 23.16063c-35.832709 2.172534-69.153732-10.38468-94.059711-32.443206-24.905979-22.058525-41.396915-53.618361-43.569449-89.451069-.158818-2.619475-.238282-5.243158-.238282-7.867443v-657.357969c0-35.898509 14.550745-68.3985086 38.076118-91.9238814s56.025373-38.0761184 91.923882-38.0761184z" stroke-width="40"/><g stroke-linecap="round" stroke-width="20"><path d="m344.507793 103.738941 381.821621 18.040299c26.667043 1.259964 47.640234 23.247492 47.640234 49.944284v616.473704c0 26.499549-20.674591 48.396761-47.130464 49.917589l-381.821621 21.949196c-27.568724 1.584801-51.202325-19.479331-52.787126-47.048054-.054929-.955526-.08241-1.912433-.08241-2.869536v-656.463198c0-27.614238 22.385762-50 50-50 .786917 0 1.573725.018577 2.359766.055716z"/><path d="m382.366473 226.6305 307.813334 5.751311c9.263433.173081 16.682421 7.731983 16.682421 16.997033v468.096835c0 9.197904-7.315615 16.727645-16.509692 16.992928l-307.813335 8.881539c-9.384935.27079-17.212446-7.117685-17.483236-16.50262-.004714-.163393-.007072-.326846-.007072-.490308v-482.729684c0-9.388841 7.611159-17 17-17 .105867 0 .211731.000989.31758.002966z"/><path d="m322.084656 68.4824145 380.998721 19.6267369c47.842711 2.4645655 85.369887 41.9746726 85.369887 89.8808216v601.914286c0 47.575602-37.02794 86.9333-84.51511 89.832711l-380.998721 23.262531c-49.613236 3.029221-92.28838-34.734584-95.317602-84.34782-.1115-1.826172-.167289-3.655319-.167289-5.484891v-644.803554c0-49.705628 40.294373-90.0000001 90-90.0000001 1.544138 0 3.088021.0397394 4.630114.1191786z"/></g></g></svg>