<?xml version="1.0" encoding="utf-8"?>
<!-- Generator: Adobe Illustrator 21.0.0, SVG Export Plug-In . SVG Version: 6.00 Build 0)  -->
<svg version="1.1" id="Layer_1" xmlns="http://www.w3.org/2000/svg" xmlns:xlink="http://www.w3.org/1999/xlink" x="0px" y="0px"
	 viewBox="0 0 1205.9 244" style="enable-background:new 0 0 1205.9 244;" xml:space="preserve">
<style type="text/css">
	.st0{fill-rule:evenodd;clip-rule:evenodd;}
</style>
<g>
	<polygon class="st0" points="112.2,84.2 71.2,84.2 71.2,13.5 18.5,13.5 18.5,183.4 70.7,183.4 70.7,105.9 112.2,105.9 112.2,184.3 
		164.4,184.3 164.4,13 112.2,13 	"/>
	<path class="st0" d="M278.4,59.7c-13.7-5.4-30.6-4.4-30.6-4.4c-0.7,0-5.9-0.2-13.7,1.2c-8.8,1.5-27.8,5.2-42.9,25.2
		c-15.1,20-12.8,45.3-9.2,59.5c3.7,14.2,11.7,24.6,23.7,34.1c12,9.5,29.8,12.6,43.7,12.6c13.9,0,28.1-2.5,37.1-7.4
		c9-4.9,22.6-14.4,29.3-33.6c6.7-19.3,5.6-43-3.9-59.4C302.3,71.1,292,65.1,278.4,59.7z M268.1,145.4c-0.7,8-3.5,19.5-10.2,25.2
		c-6.8,5.7-15,3.3-20.1-4.4c-5.1-7.7-6.9-15-6.5-36.8c0.4-21.8-0.8-37,3.3-45.9c4.1-8.9,8.3-12.7,12.2-13.4
		c8.2-1.6,14.5,3.9,18.4,13.9c1.5,3.8,3,11,3.1,20.6C268.5,121.4,268.5,141.2,268.1,145.4z"/>
	<path class="st0" d="M444.4,59.9c-17.5-7.4-34.7-3-44.6,1.7c-9.9,4.7-16.4,14.6-16.4,14.5V59.4h-49.1v124.1l48.9,0V94.3
		c-1-1,5.9-8.3,12.6-11.9c6.7-3.6,14.6-1.6,17.4,1.8c3.9,4.7,3.9,10.1,3.9,13v86.4h48.3L465.2,89C464.8,83,461.9,67.3,444.4,59.9z"
		/>
	<path class="st0" d="M615.3,147.9l-21,0.1c-0.5,0,0.2,18.9-26.3,23c-23.9,3.8-31.9-6.5-33.9-9.2c-2-2.7-2.9-7.8-2.9-7.8v-25.3
		l88.2,0.2c0.2,0,1.5-23-7.8-40.6c-10.8-20.5-28.4-31.7-58.9-33.2c-30.6-1.6-55.4,14.1-65.1,33.7c-9.7,19.6-8.5,42.7-4.3,54.6
		c3.4,9.6,8.6,20,20.1,29.6c19.7,16.4,44.2,15.9,61.4,14.2c17.3-1.8,32.7-10.3,41.4-18.6C615.1,160.4,615.3,147.9,615.3,147.9z
		 M532.3,88.6c1.4-7.8,5.7-14.1,9.5-16.9c4.6-3.3,13.9-3.8,19,1.4c5.1,5.2,6.2,9.5,6.9,11.8c0.7,2.3,2.1,9.5,2,16.5
		c-0.1,7-0.1,10.9,0,11.2h-38.5C531.2,112.5,530.9,96.3,532.3,88.6z"/>
	<path class="st0" d="M997.7,55.3c-30.6-1.6-55.4,14.1-65.1,33.7c-9.7,19.6-8.5,42.7-4.3,54.6c3.4,9.6,8.6,20,20.1,29.6
		c19.7,16.4,44.2,15.9,61.4,14.2c17.3-1.8,32.7-10.3,41.4-18.6c8.7-8.3,9-20.8,9-20.8l-21,0c-0.5,0,0.2,19-26.3,23.2
		c-23.9,3.8-31.9-6.5-33.9-9.2c-2-2.7-2.9-7.8-2.9-7.8v-25.3l88,0.2c0.2,0,1.6-23-7.6-40.6C1045.8,68,1028.2,56.8,997.7,55.3z
		 M1014.6,112.5h-38.5c0,0-0.3-16.2,1.1-23.9c1.4-7.8,5.7-14.1,9.5-16.9c4.6-3.3,13.9-3.8,19,1.4c5.1,5.2,6.2,9.5,6.9,11.8
		c0.7,2.3,2.1,9.5,2,16.5C1014.5,108.3,1014.5,112.2,1014.6,112.5z"/>
	<path class="st0" d="M905.8,59.5L887,128.1l-21-68.6h-42.8l-19,69.7l-21.6-69.5l-67.1-0.2l-24.3,59l-22.8-59h-53.3l49.5,126.9
		c0,0,0,1.2-1,4.8c-1,3.6-4.5,12.6-10.5,19c-6,6.4-12.6,4.7-12.6,4.7s2.6-2.2,4.1-5.9c1.6-3.6,1-10-1.7-15.7
		c-2.8-5.7-10.4-10.2-22.1-7.9c-11.7,2.2-16.9,12.9-15.7,23.1c1.2,10.2,7.8,18.8,24.3,21.7c16.6,2.9,26.6-3.1,35.7-11.2
		c9.1-8.1,16.5-28.8,16.5-28.8l51.6-126.4L770,183.6h41.2l19.8-72.4l22.4,72.4h40.2l34.1-124.2H905.8z"/>
	<rect x="1078.9" y="13.1" class="st0" width="47" height="170.6"/>
	<rect x="1140.5" y="13.3" class="st0" width="47" height="170.6"/>
</g>
</svg>